<svg width="64" height="64" viewBox="0 0 64 64" fill="none" xmlns="http://www.w3.org/2000/svg">
<path d="M39.8876 10.032C40.0246 9.64069 40.0366 9.21647 39.9219 8.81803C39.8073 8.4196 39.5716 8.06664 39.2476 7.808L38.5356 7.292C36.0365 5.64037 33.1989 4.57012 30.2316 4.16C24.8596 3.448 18.0156 4.916 11.3596 12.532H7.14358C6.88048 12.5321 6.61998 12.584 6.37699 12.6849C6.13401 12.7858 5.91332 12.9337 5.72758 13.12L0.583576 18.268C0.209856 18.6429 0 19.1507 0 19.68C0 20.2094 0.209856 20.7171 0.583576 21.092L10.8676 31.408C11.0534 31.5943 11.2741 31.742 11.517 31.8429C11.76 31.9437 12.0205 31.9956 12.2836 31.9956C12.5466 31.9956 12.8071 31.9437 13.0501 31.8429C13.2931 31.742 13.5138 31.5943 13.6996 31.408L18.8436 26.248C19.2175 25.8732 19.4275 25.3654 19.4276 24.836V22.28L52.9756 57.772C53.1464 58.0038 53.3652 58.196 53.6172 58.3354C53.8691 58.4748 54.1481 58.5582 54.4353 58.5799C54.7224 58.6015 55.0108 58.5609 55.2808 58.4608C55.5508 58.3608 55.7959 58.2036 55.9996 58L61.9996 52C62.3623 51.637 62.5716 51.1486 62.5843 50.6356C62.5969 50.1226 62.412 49.6244 62.0676 49.244L25.5516 14.724C28.5396 12.9 32.6396 11.368 37.9996 11.368C38.4139 11.3683 38.8181 11.2399 39.1563 11.0006C39.4945 10.7613 39.75 10.4228 39.8876 10.032Z" fill="#27D408"/>
</svg>
