<svg width="59" height="61" viewBox="0 0 59 61" fill="none" xmlns="http://www.w3.org/2000/svg">
<path d="M26.0488 41.2256L26.9189 41.2463L27.789 41.2669L28.659 41.2876L29.5291 41.3083L30.4348 41.3035L31.3405 41.2986L32.2463 41.2938L33.152 41.2889L34.0278 41.2412L34.9036 41.1934L35.7794 41.1456L36.6552 41.0979L37.531 41.0501L38.4068 41.0023L39.2826 40.9546L40.1584 40.9068L41.0342 40.859L41.91 40.8113L42.7858 40.7635L43.6616 40.7157L44.5313 40.6401L45.4011 40.5645L46.2709 40.4889L47.1406 40.4133L47.9626 40.3075L48.7846 40.2017L49.6066 40.096L50.4372 40.0985L51.5098 40.1029L52.4397 40.2094L53.3964 40.2968L54.2461 40.4608L53.0286 39.2206L52.0286 38.7206L50.5286 37.2206L49.6066 35.7206L48.5286 34.2206L47.5286 32.7206L46.5286 31.2206L45.4659 29.9011L44.5782 28.9923L43.6458 28.1153L42.6536 27.1526L41.6614 26.1898L40.6693 25.227L39.6771 24.2642L38.8645 23.5589L38.0518 22.8537L37.2277 22.2853L36.4036 21.717L35.6693 21.2774L34.935 20.8378L34.2007 20.3983L33.4663 19.9587L30.5959 18.841L27.7889 18.3003L26.0488 18.3003L23.8495 18.3003L21.542 18.3003L19.0959 18.341L17.3138 18.6513L15.0286 19.2206L12.5286 19.7206L9.8388 20.2206L7.02862 20.7206L4.02863 21.7206L0.525167 22.9356L1.52862 24.7206L2.02861 25.7205L3.02862 27.1526L4.29558 28.7415L4.89295 29.2147L5.49032 29.688L6.08769 30.1612L6.68506 30.6345L7.47349 31.2283L8.26193 31.8222L9.05036 32.4161L9.8388 33.01L10.6272 33.6038L11.4157 34.1977L12.2041 34.7916L12.9925 35.3855L13.9064 36.0826L14.8203 36.7797L15.7342 37.4768L16.6035 38.2058L17.4875 38.86L18.5141 39.412L19.2119 39.7992L19.8631 40.1195L20.7547 40.3821L21.542 40.5908L22.3292 40.7994L23.0053 40.9447L23.8495 41.0625L24.5826 41.1168L25.3157 41.1712L26.0488 41.2256Z" fill="url(#paint0_linear_56_137)"/>
<path d="M4.10552 21.9594L0.88976 23.0746L1.74479 24.5956L1.74504 24.5954L1.7505 24.6063L2.24228 25.5899L3.22727 27.0004L4.47154 28.5609L5.04668 29.0165L5.64405 29.4898L6.24142 29.963L6.83641 30.4344L7.62245 31.0264L8.41088 31.6203L9.19932 32.2142L9.98775 32.8081L10.7762 33.4019L11.5646 33.9958L12.3531 34.5897L13.1415 35.1835L13.1427 35.1845L14.0566 35.8816L14.9705 36.5787L15.8844 37.2758L15.8845 37.2756L15.8933 37.2829L16.7568 38.0071L17.6205 38.6463L18.6315 39.1899L18.6315 39.1899L18.6343 39.1915L19.3268 39.5757L19.9536 39.884L20.8219 40.1397L21.6059 40.3475L22.3875 40.5547L23.0492 40.6969L23.8766 40.8123L24.6018 40.8661L25.3349 40.9204L26.0619 40.9743L26.9258 40.9949L27.7958 41.0156L28.6659 41.0363L29.5324 41.0569L30.4345 41.052L31.3402 41.0472L32.246 41.0423L33.1457 41.0375L34.0154 40.9901L34.8912 40.9423L35.767 40.8946L36.6428 40.8468L37.5186 40.799L38.3944 40.7513L39.2702 40.7035L40.146 40.6557L41.0218 40.6079L41.8976 40.5602L42.7734 40.5124L43.6452 40.4649L44.5111 40.3896L45.3808 40.314L46.2506 40.2384L47.1153 40.1632L47.9322 40.0581L48.7542 39.9523L49.5762 39.8465L49.5922 39.8445L49.6083 39.8445L50.439 39.847L50.4393 39.847L51.5119 39.8514L51.5254 39.8515L51.5388 39.853L52.4659 39.9593L53.4198 40.0464L53.4319 40.0475L53.444 40.0498L53.5028 40.0612L52.8809 39.4277L51.9178 38.9461L51.8819 38.9282L51.8535 38.8998L50.3535 37.3998L50.3328 37.379L50.3174 37.354L49.4001 35.8616L48.3274 34.369L48.3273 34.3691L48.3224 34.3618L47.3224 32.8618L46.3286 31.3711L45.2804 30.0697L44.4047 29.1732L43.4762 28.2998L43.4762 28.2998L43.4734 28.2972L42.4812 27.3344L41.489 26.3716L40.4968 25.4088L39.5096 24.4508L38.7022 23.7501L37.9 23.0538L37.0872 22.4933L36.2696 21.9294L35.5421 21.494L34.8078 21.0544L34.0734 20.6148L33.3569 20.1859L30.5265 19.0838L27.7645 18.5518L26.0478 18.5518L23.8485 18.5518L21.545 18.5518L21.5409 18.5518L19.1181 18.5921L17.3637 18.8975L15.0871 19.4647L15.0872 19.465L15.0759 19.4672L12.5759 19.9673L12.5726 19.9679L9.88274 20.4679L9.88087 20.4682L7.08843 20.9651L4.10835 21.9584L4.10552 21.9594Z" stroke="#2D3631" stroke-opacity="0.5" stroke-width="0.5"/>
<path d="M7.43452 24.8368L9.48674 25.9935L12.9296 26.7756L16.0952 27.2295L21.0698 28.14L23.331 28.5958L26.497 29.51L29.2108 30.4251L31.9033 31.4974L34.5668 32.9551L36.901 34.0921L40.0669 35.0063L42.3286 35.9224L44.1381 36.8394L46.1389 37.4145L47.4958 37.8721L49.305 38.4903L51.4484 39.4289L51.9208 39.5572L52.6293 39.7496L53.2309 39.7867L52.7585 39.6584L52.5223 39.5943L52.2862 39.5301L51.8138 39.4019L51.1143 39.2457L49.7279 38.4895L47.9479 37.8349L45.2341 36.9907L41.4235 35.1225L36.9051 33.4593L33.7337 31.7969L29.243 29.5649L24.4408 28.1823L20.7028 27.5586L18.0332 27.0503L14.2955 26.3653L10.0244 25.5255L7.43452 24.8368Z" fill="#2D3631" fill-opacity="0.5"/>
<defs>
<linearGradient id="paint0_linear_56_137" x1="2.1034" y1="26.3069" x2="52.5682" y2="30.4108" gradientUnits="userSpaceOnUse">
<stop stop-color="#27D408"/>
<stop offset="1" stop-color="#05994C"/>
</linearGradient>
</defs>
</svg>
