<svg width="64" height="64" viewBox="0 0 64 64" fill="none" xmlns="http://www.w3.org/2000/svg">
<g clip-path="url(#clip0_56_104)">
<path d="M4 3.14927e-05L0 4.00003L8.8 16.324C9.17047 16.843 9.65963 17.2659 10.2267 17.5574C10.7938 17.849 11.4224 18.0007 12.06 18H12.34C12.8659 17.9996 13.3868 18.1029 13.8727 18.304C14.3587 18.5051 14.8002 18.8001 15.172 19.172L25.872 29.872L15.404 40.488C13.6136 39.961 11.725 39.8584 9.88799 40.1884C8.05101 40.5185 6.31621 41.272 4.8212 42.3893C3.32618 43.5066 2.11208 44.9568 1.27521 46.6251C0.438345 48.2933 0.0017288 50.1336 0 52C0.00239785 53.7198 0.374415 55.4189 1.09085 56.9824C1.80728 58.5458 2.85138 59.937 4.15242 61.0616C5.45347 62.1863 6.98104 63.0181 8.63166 63.5009C10.2823 63.9836 12.0174 64.1059 13.7194 63.8595C15.4214 63.6131 17.0506 63.0037 18.4965 62.0727C19.9424 61.1416 21.1714 59.9107 22.1 58.4632C23.0287 57.0157 23.6354 55.3856 23.879 53.6832C24.1226 51.9807 23.9974 50.2459 23.512 48.596L34.128 38.128L38 42L36.78 45.656C36.5456 46.3607 36.512 47.1168 36.6829 47.8395C36.8539 48.5622 37.2227 49.2231 37.748 49.748L50.828 62.828C51.1986 63.2008 51.6393 63.4966 52.1246 63.6984C52.6099 63.9003 53.1304 64.0042 53.656 64.0042C54.1816 64.0042 54.7021 63.9003 55.1874 63.6984C55.6727 63.4966 56.1134 63.2008 56.484 62.828L62.828 56.484C63.2007 56.1134 63.4965 55.6728 63.6984 55.1874C63.9002 54.7021 64.0041 54.1817 64.0041 53.656C64.0041 53.1304 63.9002 52.61 63.6984 52.1246C63.4965 51.6393 63.2007 51.1986 62.828 50.828L49.748 37.748C49.223 37.2227 48.5622 36.8539 47.8395 36.683C47.1167 36.512 46.3607 36.5456 45.656 36.78L42 38L38.16 34.16L48.88 23.588C50.6584 24.0627 52.522 24.1227 54.3272 23.7633C56.1323 23.4039 57.8309 22.6347 59.2918 21.515C60.7527 20.3954 61.937 18.9552 62.7533 17.3055C63.5696 15.6558 63.9961 13.8406 64 12C64 10.924 63.86 9.88003 63.592 8.89203L55.032 17.456L48 16L46.544 8.97203L55.108 0.408031C53.0708 -0.139723 50.9252 -0.140746 48.8874 0.405067C46.8497 0.95088 44.9918 2.02424 43.5011 3.51695C42.0105 5.00966 40.9396 6.86897 40.3966 8.90745C39.8535 10.9459 39.8575 13.0916 40.408 15.128L29.848 25.84L19.172 15.172C18.4218 14.4221 18.0002 13.4048 18 12.344V12.06C18.0001 11.4231 17.848 10.7953 17.5565 10.229C17.265 9.66263 16.8424 9.17411 16.324 8.80403L4 3.14927e-05ZM42.584 42.584C42.7698 42.3978 42.9905 42.25 43.2335 42.1492C43.4764 42.0484 43.7369 41.9965 44 41.9965C44.2631 41.9965 44.5236 42.0484 44.7665 42.1492C45.0095 42.25 45.2302 42.3978 45.416 42.584L57.072 54.244C57.4363 54.6212 57.6379 55.1264 57.6333 55.6508C57.6288 56.1752 57.4185 56.6769 57.0476 57.0477C56.6768 57.4185 56.1752 57.6288 55.6508 57.6334C55.1264 57.6379 54.6212 57.4363 54.244 57.072L42.584 45.416C42.3977 45.2302 42.25 45.0095 42.1492 44.7666C42.0483 44.5236 41.9964 44.2631 41.9964 44C41.9964 43.737 42.0483 43.4765 42.1492 43.2335C42.25 42.9905 42.3977 42.7698 42.584 42.584ZM12 44L13.884 44.968L16 45.072L17.148 46.852L18.928 48L19.032 50.116L20 52L19.032 53.884L18.928 56L17.148 57.148L16 58.928L13.884 59.032L12 60L10.116 59.032L8 58.928L6.852 57.148L5.072 56L4.968 53.884L4 52L4.968 50.116L5.072 48L6.852 46.852L8 45.072L10.116 44.968L12 44Z" fill="#27D408"/>
</g>
<defs>
<clipPath id="clip0_56_104">
<rect width="64" height="64" fill="white"/>
</clipPath>
</defs>
</svg>
